<svg xmlns="http://www.w3.org/2000/svg" xmlns:xlink="http://www.w3.org/1999/xlink" version="1.1" id="Layer_1" x="0px" y="0px" style="enable-background:new 0 0 512 512;" xml:space="preserve" viewBox="41.21 0 429.58 512">
<g>
	<g>
		<g>
			<path d="M59.943,0C49.598,0,41.211,8.387,41.211,18.732v474.537c0,10.345,8.387,18.732,18.732,18.732     c10.345,0,18.732-8.387,18.732-18.732V18.732C78.674,8.387,70.288,0,59.943,0z"/>
			<path d="M452.057,354.358H109.894c-6.897,0-12.488,5.591-12.488,12.488v102.659c0,6.897,5.591,12.488,12.488,12.488h342.163     c10.345,0,18.732-8.387,18.732-18.732v-90.171C470.789,362.745,462.402,354.358,452.057,354.358z"/>
			<path d="M109.894,319.818H302.96c10.345,0,18.732-8.387,18.732-18.732v-90.172c-0.001-10.345-8.387-18.732-18.732-18.732H109.894     c-6.897,0-12.488,5.591-12.488,12.488v102.66C97.406,314.227,102.997,319.818,109.894,319.818z"/>
			<path d="M109.894,157.642h245.683c10.345,0,18.732-8.387,18.732-18.732V48.739c0-10.345-8.387-18.732-18.732-18.732H109.894     c-6.897,0-12.488,5.591-12.488,12.488v102.66C97.406,152.052,102.997,157.642,109.894,157.642z"/>
		</g>
	</g>
</g>
<g>
</g>
<g>
</g>
<g>
</g>
<g>
</g>
<g>
</g>
<g>
</g>
<g>
</g>
<g>
</g>
<g>
</g>
<g>
</g>
<g>
</g>
<g>
</g>
<g>
</g>
<g>
</g>
<g>
</g>
</svg>